<svg xmlns="http://www.w3.org/2000/svg" viewBox="0 0 500 500" width="500" height="500">
    <path d="M250,50C149.325,50,60,139.325,60,240c0,100.675,89.325,190,190,190s190 - 89.325,190 - 190C440,139.325,350.675,50,250,50z M250,430
        c - 104.93,0 - 190 - 85.07 - 190 - 190C60,125.07,145.07,40,250,40s190,85.07,190,190C440,344.93,354.93,430,250,430z M250,140
        c - 60.627,0 - 110,49.373 - 110,110c0,60.627,49.373,110,110,110s110 - 49.373,110 - 110C360,189.373,310.627,140,250,140z"
        fill="#add8e6" opacity="0.2" />
</svg>